<svg width="25" height="25" viewBox="0 0 25 25" fill="none" xmlns="http://www.w3.org/2000/svg">
<g clip-path="url(#clip0_4388_4245)">
<path d="M12.1546 1.19531C10.0359 1.19701 7.96072 1.79696 6.16797 2.92612H18.1248C16.3368 1.79992 14.2677 1.20009 12.1546 1.19531Z" fill="#B22234"/>
<path d="M6.16797 2.92603C5.39569 3.41492 4.68587 3.99611 4.0542 4.65674H20.2683C19.6274 3.9942 18.9075 3.41294 18.1248 2.92603H6.16797Z" fill="white"/>
<path d="M4.0546 4.65674C3.54399 5.18759 3.08674 5.76731 2.68945 6.38754H21.6335C21.2363 5.76733 20.7792 5.18761 20.2687 4.65674H4.0546Z" fill="#B22234"/>
<path d="M2.68903 6.3877C2.33394 6.93688 2.02742 7.51597 1.77295 8.11841H22.528C22.2803 7.51671 21.9808 6.93763 21.633 6.3877H2.68903Z" fill="white"/>
<path d="M1.77316 8.11841C1.54281 8.67952 1.35822 9.25834 1.22119 9.84921H23.0876C22.9481 9.25812 22.761 8.6793 22.5282 8.11841H1.77316Z" fill="#B22234"/>
<path d="M1.22134 9.84912C1.08545 10.4181 0.99414 10.9968 0.948242 11.5799H23.3683C23.32 10.9966 23.2261 10.4179 23.0877 9.84912H1.22134Z" fill="white"/>
<path d="M0.94809 11.5801C0.922548 11.8679 0.908103 12.1565 0.904785 12.4454C0.90588 12.7342 0.918096 13.0229 0.941406 13.3108H23.3615C23.387 13.023 23.4015 12.7343 23.4048 12.4454C23.4037 12.1566 23.3915 11.868 23.3682 11.5801H0.94809Z" fill="#B22234"/>
<path d="M0.941406 13.3105C0.989772 13.8939 1.08359 14.4726 1.22202 15.0414H23.0884C23.2243 14.4724 23.3156 13.8937 23.3615 13.3105H0.941406Z" fill="white"/>
<path d="M1.22217 15.0415C1.36161 15.6326 1.54868 16.2114 1.78156 16.7723H22.5366C22.7669 16.2112 22.9515 15.6324 23.0885 15.0415H1.22217Z" fill="#B22234"/>
<path d="M1.78125 16.7722C2.02895 17.3739 2.32838 17.953 2.67618 18.5029H21.6202C21.9753 17.9537 22.2818 17.3747 22.5363 16.7722H1.78125Z" fill="white"/>
<path d="M2.67627 18.5029C3.07344 19.1231 3.53056 19.7029 4.04105 20.2337H20.2551C20.7657 19.7029 21.223 19.1232 21.6203 18.5029H2.67627Z" fill="#B22234"/>
<path d="M4.04102 20.2339C4.68189 20.8964 5.40176 21.4777 6.18445 21.9646H18.1413C18.9136 21.4757 19.6234 20.8945 20.2551 20.2339H4.04102Z" fill="white"/>
<path d="M6.18457 21.9646C7.9726 23.0908 10.0417 23.6906 12.1548 23.6954C14.2735 23.6937 16.3487 23.0938 18.1414 21.9646H6.18457Z" fill="#B22234"/>
<path d="M12.1548 1.19531C9.1711 1.19531 6.30962 2.38058 4.19983 4.49036C2.09005 6.60015 0.904785 9.46163 0.904785 12.4453C0.906257 12.7426 0.919512 13.0397 0.944519 13.3359H13.0454V1.2399C12.7492 1.21327 12.4521 1.1984 12.1548 1.19531Z" fill="#3C3B6E"/>
<path d="M8.12825 1.95378C7.97836 2.0085 7.82964 2.0664 7.68221 2.12745L7.84655 2.25233L7.7354 2.61149L8.02983 2.39167L8.33287 2.62202L8.21907 2.25032L8.52211 2.02409H8.14977L8.12825 1.95378ZM10.0365 1.64648L9.91966 2.02406H9.5486L9.84896 2.25236L9.73779 2.61147L10.0322 2.39166L10.3353 2.62201L10.2215 2.25036L10.5245 2.02406H10.1522L10.0365 1.64648ZM12.0389 1.64648L11.922 2.02406H11.551L11.8513 2.25236L11.7402 2.61147L12.0346 2.39166L12.3377 2.62201L12.2238 2.25036L12.5269 2.02406H12.1546L12.0389 1.64648ZM5.23372 3.59257C5.18082 3.63203 5.12827 3.67194 5.07607 3.71232L5.3293 3.90486L5.23372 3.59257ZM7.03297 2.92931L6.91608 3.30689H6.54503L6.84538 3.53518L6.73421 3.8943L7.02862 3.67449L7.33169 3.90483L7.21788 3.53319L7.52091 3.30689H7.1486L7.03297 2.92931ZM9.03535 2.92931L8.91847 3.30689H8.54741L8.84777 3.53518L8.7366 3.8943L9.03101 3.67449L9.33408 3.90483L9.22027 3.53319L9.5233 3.30689H9.15098L9.03535 2.92931ZM11.0377 2.92931L10.9209 3.30689H10.5498L10.8502 3.53518L10.739 3.8943L11.0334 3.67449L11.3365 3.90483L11.2227 3.53319L11.5257 3.30689H11.1534L11.0377 2.92931ZM4.13573 4.55946C4.02476 4.67692 3.91634 4.79676 3.81053 4.9189L3.73061 5.17708L4.02504 4.95726L4.32808 5.1876L4.21428 4.81599L4.51732 4.58967H4.14498L4.13573 4.55946ZM6.03178 4.21209L5.91488 4.58967H5.54383L5.84419 4.81796L5.73301 5.17708L6.02743 4.95727L6.3305 5.18761L6.21669 4.81597L6.51972 4.58967H6.1474L6.03178 4.21209ZM8.03416 4.21209L7.91727 4.58967H7.54622L7.84657 4.81796L7.7354 5.17708L8.02982 4.95727L8.33288 5.18761L8.21907 4.81597L8.5221 4.58967H8.14979L8.03416 4.21209ZM10.0365 4.21209L9.91966 4.58967H9.5486L9.84896 4.81796L9.73779 5.17708L10.0322 4.95727L10.3353 5.18761L10.2215 4.81597L10.5245 4.58967H10.1522L10.0365 4.21209ZM12.0389 4.21209L11.922 4.58967H11.551L11.8513 4.81796L11.7402 5.17708L12.0346 4.95727L12.3377 5.18761L12.2238 4.81597L12.5269 4.58967H12.1546L12.0389 4.21209ZM3.11318 5.77235C3.00952 5.91049 2.90906 6.051 2.81188 6.19377L2.72948 6.45991L3.02382 6.24009L3.32695 6.47044L3.21315 6.09883L3.5161 5.87251H3.14385L3.11318 5.77235ZM5.03058 5.49492L4.91369 5.8725H4.54264L4.84299 6.10079L4.73182 6.45991L5.02624 6.2401L5.32931 6.47044L5.2155 6.0988L5.51853 5.8725H5.14621L5.03058 5.49492ZM7.03297 5.49492L6.91608 5.8725H6.54503L6.84538 6.10079L6.73421 6.45991L7.02862 6.2401L7.33169 6.47044L7.21788 6.0988L7.52091 5.8725H7.1486L7.03297 5.49492ZM9.03535 5.49492L8.91847 5.8725H8.54741L8.84777 6.10079L8.7366 6.45991L9.03101 6.2401L9.33408 6.47044L9.22027 6.0988L9.5233 5.8725H9.15098L9.03535 5.49492ZM11.0377 5.49492L10.9209 5.8725H10.5498L10.8502 6.10079L10.739 6.45991L11.0334 6.2401L11.3365 6.47044L11.2227 6.0988L11.5257 5.8725H11.1534L11.0377 5.49492ZM2.23574 7.15535C2.1685 7.28136 2.10367 7.40864 2.04128 7.53712L2.32573 7.75328L2.21193 7.38166L2.51497 7.15535H2.23574ZM4.02939 6.77775L3.9125 7.15533H3.54145L3.84181 7.38362L3.73063 7.74274L4.02505 7.52293L4.32811 7.75327L4.21431 7.38163L4.51734 7.15533H4.14502L4.02939 6.77775ZM6.03178 6.77775L5.91488 7.15533H5.54383L5.84419 7.38362L5.73301 7.74274L6.02743 7.52293L6.3305 7.75327L6.21669 7.38163L6.51972 7.15533H6.1474L6.03178 6.77775ZM8.03416 6.77775L7.91727 7.15533H7.54622L7.84657 7.38362L7.7354 7.74274L8.02982 7.52293L8.33288 7.75327L8.21907 7.38163L8.5221 7.15533H8.14979L8.03416 6.77775ZM10.0365 6.77775L9.91966 7.15533H9.5486L9.84896 7.38362L9.73779 7.74274L10.0322 7.52293L10.3353 7.75327L10.2215 7.38163L10.5245 7.15533H10.1522L10.0365 6.77775ZM12.0389 6.77775L11.922 7.15533H11.551L11.8513 7.38362L11.7402 7.74274L12.0346 7.52293L12.3377 7.75327L12.2238 7.38163L12.5269 7.15533H12.1546L12.0389 6.77775ZM3.0282 8.06053L2.91131 8.4381H2.54025L2.84061 8.6664L2.72944 9.02551L3.02385 8.80571L3.32692 9.03605L3.21312 8.6644L3.51614 8.4381H3.14382L3.0282 8.06053ZM5.03058 8.06053L4.91369 8.4381H4.54264L4.84299 8.6664L4.73182 9.02551L5.02624 8.80571L5.32931 9.03605L5.2155 8.6644L5.51853 8.4381H5.14621L5.03058 8.06053ZM7.03297 8.06053L6.91608 8.4381H6.54503L6.84538 8.6664L6.73421 9.02551L7.02862 8.80571L7.33169 9.03605L7.21788 8.6644L7.52091 8.4381H7.1486L7.03297 8.06053ZM9.03535 8.06053L8.91847 8.4381H8.54741L8.84777 8.6664L8.7366 9.02551L9.03101 8.80571L9.33408 9.03605L9.22027 8.6644L9.5233 8.4381H9.15098L9.03535 8.06053ZM11.0377 8.06053L10.9209 8.4381H10.5498L10.8502 8.6664L10.739 9.02551L11.0334 8.80571L11.3365 9.03605L11.2227 8.6644L11.5257 8.4381H11.1534L11.0377 8.06053ZM2.02701 9.34336L1.91012 9.72093H1.53906L1.83942 9.94923L1.72825 10.3083L2.02267 10.0885L2.32573 10.3189L2.21192 9.94723L2.51495 9.72093H2.14264L2.02701 9.34336ZM4.02939 9.34336L3.9125 9.72093H3.54145L3.84181 9.94923L3.73063 10.3083L4.02505 10.0885L4.32811 10.3189L4.21431 9.94723L4.51734 9.72093H4.14502L4.02939 9.34336ZM6.03178 9.34336L5.91488 9.72093H5.54383L5.84419 9.94923L5.73301 10.3083L6.02743 10.0885L6.3305 10.3189L6.21669 9.94723L6.51972 9.72093H6.1474L6.03178 9.34336ZM8.03416 9.34336L7.91727 9.72093H7.54622L7.84657 9.94923L7.7354 10.3083L8.02982 10.0885L8.33288 10.3189L8.21907 9.94723L8.5221 9.72093H8.14979L8.03416 9.34336ZM10.0365 9.34336L9.91966 9.72093H9.5486L9.84896 9.94923L9.73779 10.3083L10.0322 10.0885L10.3353 10.3189L10.2215 9.94723L10.5245 9.72093H10.1522L10.0365 9.34336ZM12.0389 9.34336L11.922 9.72093H11.551L11.8513 9.94923L11.7402 10.3083L12.0346 10.0885L12.3377 10.3189L12.2238 9.94723L12.5269 9.72093H12.1546L12.0389 9.34336ZM3.0282 10.6262L2.91131 11.0038H2.54025L2.84061 11.2321L2.72944 11.5912L3.02385 11.3714L3.32692 11.6017L3.21312 11.2301L3.51614 11.0038H3.14382L3.0282 10.6262ZM5.03058 10.6262L4.91369 11.0038H4.54264L4.84299 11.2321L4.73182 11.5912L5.02624 11.3714L5.32931 11.6017L5.2155 11.2301L5.51853 11.0038H5.14621L5.03058 10.6262ZM7.03297 10.6262L6.91608 11.0038H6.54503L6.84538 11.2321L6.73421 11.5912L7.02862 11.3714L7.33169 11.6017L7.21788 11.2301L7.52091 11.0038H7.1486L7.03297 10.6262ZM9.03535 10.6262L8.91847 11.0038H8.54741L8.84777 11.2321L8.7366 11.5912L9.03101 11.3714L9.33408 11.6017L9.22027 11.2301L9.5233 11.0038H9.15098L9.03535 10.6262ZM11.0377 10.6262L10.9209 11.0038H10.5498L10.8502 11.2321L10.739 11.5912L11.0334 11.3714L11.3365 11.6017L11.2227 11.2301L11.5257 11.0038H11.1534L11.0377 10.6262ZM2.02701 11.909L1.91012 12.2865H1.53906L1.83942 12.5148L1.72825 12.8739L2.02267 12.6541L2.32573 12.8845L2.21192 12.5128L2.51495 12.2865H2.14264L2.02701 11.909ZM4.02939 11.909L3.9125 12.2865H3.54145L3.84181 12.5148L3.73063 12.8739L4.02505 12.6541L4.32811 12.8845L4.21431 12.5128L4.51734 12.2865H4.14502L4.02939 11.909ZM6.03178 11.909L5.91488 12.2865H5.54383L5.84419 12.5148L5.73301 12.8739L6.02743 12.6541L6.3305 12.8845L6.21669 12.5128L6.51972 12.2865H6.1474L6.03178 11.909ZM8.03416 11.909L7.91727 12.2865H7.54622L7.84657 12.5148L7.7354 12.8739L8.02982 12.6541L8.33288 12.8845L8.21907 12.5128L8.5221 12.2865H8.14979L8.03416 11.909ZM10.0365 11.909L9.91966 12.2865H9.5486L9.84896 12.5148L9.73779 12.8739L10.0322 12.6541L10.3353 12.8845L10.2215 12.5128L10.5245 12.2865H10.1522L10.0365 11.909ZM12.0389 11.909L11.922 12.2865H11.551L11.8513 12.5148L11.7402 12.8739L12.0346 12.6541L12.3377 12.8845L12.2238 12.5128L12.5269 12.2865H12.1546L12.0389 11.909Z" fill="white"/>
</g>
<defs>
<clipPath id="clip0_4388_4245">
<rect width="24" height="24" fill="white" transform="translate(0.154785 0.445312)"/>
</clipPath>
</defs>
</svg>
